<svg xmlns="http://www.w3.org/2000/svg" width="48" height="49" viewBox="0 0 48 49" fill="none">
                            <path d="M24 30.5C27.3137 30.5 30 27.8137 30 24.5C30 21.1863 27.3137 18.5 24 18.5C20.6863 18.5 18 21.1863 18 24.5C18 27.8137 20.6863 30.5 24 30.5Z" fill="#00A96F"></path>
                            <path d="M26 8.638V4.5H22V8.638C18.4803 9.08671 15.2093 10.6915 12.7004 13.2004C10.1915 15.7093 8.58671 18.9803 8.138 22.5H4V26.5H8.138C8.58638 30.0198 10.191 33.291 12.7 35.8C15.209 38.309 18.4802 39.9136 22 40.362V44.5H26V40.362C29.5198 39.9136 32.791 38.309 35.3 35.8C37.809 33.291 39.4136 30.0198 39.862 26.5H44V22.5H39.862C39.4133 18.9803 37.8085 15.7093 35.2996 13.2004C32.7907 10.6915 29.5197 9.08671 26 8.638ZM24 36.5C17.382 36.5 12 31.118 12 24.5C12 17.882 17.382 12.5 24 12.5C30.618 12.5 36 17.882 36 24.5C36 31.118 30.618 36.5 24 36.5Z" fill="#00A96F"></path>
                        </svg>