<svg xmlns="http://www.w3.org/2000/svg" width="48" height="49" viewBox="0 0 48 49" fill="none">
                            <path d="M28.0006 24.5C25.8106 24.5 24.0006 22.69 24.0006 20.5C24.0006 19.792 24.2066 19.134 24.5366 18.554C24.3566 18.54 24.1846 18.5 24.0006 18.5C22.4125 18.5105 20.8925 19.146 19.7696 20.2689C18.6466 21.3919 18.0111 22.9119 18.0006 24.5C18.0006 27.784 20.7166 30.5 24.0006 30.5C27.2826 30.5 30.0006 27.784 30.0006 24.5C30.0006 24.316 29.9606 24.144 29.9466 23.964C29.3666 24.294 28.7086 24.5 28.0006 24.5Z" fill="#00A96F"></path>
                            <path d="M24.0006 10.5C8.73458 10.5 4.14658 23.734 4.10458 23.868L3.89258 24.5L4.10258 25.132C4.14658 25.266 8.73458 38.5 24.0006 38.5C39.2666 38.5 43.8546 25.266 43.8966 25.132L44.1086 24.5L43.8986 23.868C43.8546 23.734 39.2666 10.5 24.0006 10.5ZM24.0006 34.5C13.2986 34.5 9.15258 26.808 8.14858 24.5C9.15658 22.184 13.3046 14.5 24.0006 14.5C34.7026 14.5 38.8486 22.192 39.8526 24.5C38.8446 26.816 34.6966 34.5 24.0006 34.5Z" fill="#00A96F"></path>
                        </svg>