<svg width="56" height="56" viewBox="0 0 56 56" fill="none" xmlns="http://www.w3.org/2000/svg">
<path d="M28 6.125C23.6735 6.125 19.4442 7.40795 15.8469 9.8116C12.2496 12.2153 9.44581 15.6317 7.79014 19.6288C6.13448 23.6259 5.70128 28.0243 6.54533 32.2676C7.38938 36.5109 9.47278 40.4087 12.532 43.468C15.5913 46.5272 19.4891 48.6106 23.7324 49.4547C27.9757 50.2987 32.3741 49.8655 36.3712 48.2099C40.3683 46.5542 43.7848 43.7504 46.1884 40.1531C48.5921 36.5558 49.875 32.3265 49.875 28C49.8686 22.2003 47.5619 16.6401 43.4609 12.5391C39.36 8.4381 33.7997 6.13137 28 6.125ZM28 48.125C24.0197 48.125 20.1287 46.9447 16.8192 44.7333C13.5096 42.522 10.9301 39.3789 9.40693 35.7015C7.88372 32.0241 7.48518 27.9777 8.26171 24.0738C9.03823 20.1699 10.955 16.584 13.7695 13.7695C16.584 10.9549 20.1699 9.03822 24.0738 8.2617C27.9777 7.48517 32.0242 7.88371 35.7015 9.40692C39.3789 10.9301 42.522 13.5096 44.7333 16.8191C46.9447 20.1287 48.125 24.0197 48.125 28C48.1192 33.3357 45.9971 38.4512 42.2241 42.2241C38.4512 45.997 33.3357 48.1192 28 48.125ZM37.3691 27.3809C37.4504 27.4622 37.515 27.5587 37.559 27.6649C37.603 27.7712 37.6257 27.885 37.6257 28C37.6257 28.115 37.603 28.2289 37.559 28.3351C37.515 28.4413 37.4504 28.5378 37.3691 28.6191L30.3691 35.6191C30.2049 35.7833 29.9822 35.8755 29.75 35.8755C29.5178 35.8755 29.2951 35.7833 29.1309 35.6191C28.9668 35.4549 28.8745 35.2322 28.8745 35C28.8745 34.7678 28.9668 34.5451 29.1309 34.3809L34.6369 28.875H19.25C19.0179 28.875 18.7954 28.7828 18.6313 28.6187C18.4672 28.4546 18.375 28.2321 18.375 28C18.375 27.7679 18.4672 27.5454 18.6313 27.3813C18.7954 27.2172 19.0179 27.125 19.25 27.125H34.6369L29.1309 21.6191C28.9668 21.4549 28.8745 21.2322 28.8745 21C28.8745 20.7678 28.9668 20.5451 29.1309 20.3809C29.2951 20.2168 29.5178 20.1245 29.75 20.1245C29.9822 20.1245 30.2049 20.2168 30.3691 20.3809L37.3691 27.3809Z" fill="#333333"/>
</svg>
