<svg width="56" height="56" viewBox="0 0 56 56" fill="none" xmlns="http://www.w3.org/2000/svg">
<path d="M28 6.125C23.6735 6.125 19.4442 7.40795 15.8469 9.8116C12.2496 12.2153 9.44581 15.6317 7.79014 19.6288C6.13448 23.6259 5.70128 28.0243 6.54533 32.2676C7.38938 36.5109 9.47278 40.4087 12.532 43.468C15.5913 46.5272 19.4891 48.6106 23.7324 49.4547C27.9757 50.2987 32.3741 49.8655 36.3712 48.2099C40.3683 46.5542 43.7848 43.7504 46.1884 40.1531C48.5921 36.5558 49.875 32.3265 49.875 28C49.8686 22.2003 47.5619 16.6401 43.4609 12.5391C39.36 8.4381 33.7997 6.13137 28 6.125ZM28 48.125C24.0197 48.125 20.1287 46.9447 16.8192 44.7333C13.5096 42.522 10.9301 39.3789 9.40693 35.7015C7.88372 32.0241 7.48518 27.9777 8.26171 24.0738C9.03823 20.1699 10.955 16.584 13.7695 13.7695C16.584 10.9549 20.1699 9.03822 24.0738 8.2617C27.9777 7.48517 32.0242 7.88371 35.7015 9.40692C39.3789 10.9301 42.522 13.5096 44.7333 16.8191C46.9447 20.1287 48.125 24.0197 48.125 28C48.1192 33.3357 45.9971 38.4512 42.2241 42.2241C38.4512 45.997 33.3357 48.1192 28 48.125ZM37.625 28C37.625 28.2321 37.5328 28.4546 37.3687 28.6187C37.2046 28.7828 36.9821 28.875 36.75 28.875H21.3631L26.8691 34.3809C27.0333 34.5451 27.1255 34.7678 27.1255 35C27.1255 35.2322 27.0333 35.4549 26.8691 35.6191C26.7049 35.7832 26.4822 35.8755 26.25 35.8755C26.0178 35.8755 25.7951 35.7832 25.6309 35.6191L18.6309 28.6191C18.5496 28.5378 18.4851 28.4413 18.441 28.3351C18.397 28.2289 18.3743 28.115 18.3743 28C18.3743 27.885 18.397 27.7712 18.441 27.6649C18.4851 27.5587 18.5496 27.4622 18.6309 27.3809L25.6309 20.3809C25.7951 20.2168 26.0178 20.1245 26.25 20.1245C26.4822 20.1245 26.7049 20.2168 26.8691 20.3809C27.0333 20.5451 27.1255 20.7678 27.1255 21C27.1255 21.2322 27.0333 21.4549 26.8691 21.6191L21.3631 27.125H36.75C36.9821 27.125 37.2046 27.2172 37.3687 27.3813C37.5328 27.5454 37.625 27.7679 37.625 28Z" fill="#333333"/>
</svg>
