<svg class="h-10 w-10" xmlns="http://www.w3.org/2000/svg" width="49" height="49" viewBox="0 0 49 49" fill="none">
                        <path d="M40.3953 28.87V24.132C41.5616 23.7206 42.5721 22.9585 43.2882 21.9502C44.0043 20.9419 44.391 19.7367 44.3953 18.5C44.3953 15.192 41.7033 12.5 38.3953 12.5C37.6093 12.4996 36.831 12.6541 36.1049 12.9548C35.3787 13.2554 34.7189 13.6962 34.1633 14.252L26.3333 11.12C26.3533 10.914 26.3953 10.712 26.3953 10.5C26.3953 7.192 23.7033 4.5 20.3953 4.5C17.0873 4.5 14.3953 7.192 14.3953 10.5C14.3953 12.024 14.9853 13.402 15.9253 14.462L12.5773 18.924C11.883 18.6469 11.1428 18.5031 10.3953 18.5C7.08726 18.5 4.39526 21.192 4.39526 24.5C4.39526 27.808 7.08726 30.5 10.3953 30.5C10.7133 30.5 11.0213 30.454 11.3253 30.406L15.1953 35.564C14.6993 36.436 14.3953 37.428 14.3953 38.5C14.3953 41.808 17.0873 44.5 20.3953 44.5C21.6864 44.4955 22.9414 44.0738 23.9733 43.2978C25.0052 42.5218 25.7586 41.4331 26.1213 40.194L34.0453 38.61C34.6029 39.2053 35.2765 39.6801 36.0247 40.0052C36.7728 40.3302 37.5796 40.4986 38.3953 40.5C41.7033 40.5 44.3953 37.808 44.3953 34.5C44.3912 33.2635 44.0045 32.0585 43.2883 31.0505C42.5722 30.0425 41.5616 29.2808 40.3953 28.87ZM38.3953 16.5C38.7914 16.4996 39.1787 16.6167 39.5083 16.8366C39.8378 17.0564 40.0947 17.369 40.2465 17.7349C40.3983 18.1008 40.4381 18.5035 40.3609 18.8921C40.2837 19.2806 40.093 19.6375 39.8129 19.9176C39.5328 20.1977 39.1759 20.3884 38.7873 20.4656C38.3988 20.5428 37.9961 20.503 37.6302 20.3512C37.2643 20.1994 36.9517 19.9425 36.7318 19.613C36.512 19.2835 36.3949 18.8961 36.3953 18.5C36.3953 17.398 37.2913 16.5 38.3953 16.5ZM20.3953 8.5C20.7914 8.4996 21.1787 8.61673 21.5083 8.83656C21.8378 9.05639 22.0947 9.36904 22.2465 9.73494C22.3983 10.1008 22.4381 10.5035 22.3609 10.8921C22.2837 11.2806 22.093 11.6375 21.8129 11.9176C21.5328 12.1977 21.1759 12.3884 20.7873 12.4656C20.3988 12.5428 19.9961 12.503 19.6302 12.3512C19.2643 12.1994 18.9517 11.9425 18.7318 11.613C18.512 11.2835 18.3949 10.8961 18.3953 10.5C18.3953 9.398 19.2913 8.5 20.3953 8.5ZM8.39526 24.5C8.39487 24.1039 8.512 23.7165 8.73183 23.387C8.95166 23.0575 9.26431 22.8006 9.63021 22.6488C9.99611 22.497 10.3988 22.4572 10.7873 22.5344C11.1759 22.6116 11.5328 22.8023 11.8129 23.0824C12.093 23.3625 12.2837 23.7194 12.3609 24.1079C12.4381 24.4965 12.3983 24.8992 12.2465 25.2651C12.0947 25.631 11.8378 25.9436 11.5083 26.1634C11.1787 26.3833 10.7914 26.5004 10.3953 26.5C9.29126 26.5 8.39526 25.602 8.39526 24.5ZM20.3953 40.5C19.8648 40.5 19.3561 40.2893 18.9811 39.9142C18.606 39.5391 18.3953 39.0304 18.3953 38.5C18.3953 37.9696 18.606 37.4609 18.9811 37.0858C19.3561 36.7107 19.8648 36.5 20.3953 36.5C20.9257 36.5 21.4344 36.7107 21.8095 37.0858C22.1845 37.4609 22.3953 37.9696 22.3953 38.5C22.3953 39.0304 22.1845 39.5391 21.8095 39.9142C21.4344 40.2893 20.9257 40.5 20.3953 40.5ZM25.9173 36.156C25.4561 35.0727 24.687 34.1487 23.7053 33.4988C22.7236 32.8488 21.5726 32.5015 20.3953 32.5C19.6233 32.5 18.8913 32.658 18.2133 32.926L14.8653 28.464C15.8053 27.402 16.3953 26.024 16.3953 24.5C16.3953 23.428 16.0913 22.436 15.5973 21.566L19.4673 16.406C19.7713 16.454 20.0773 16.5 20.3953 16.5C21.1812 16.5004 21.9595 16.3459 22.6857 16.0452C23.4118 15.7446 24.0716 15.3038 24.6273 14.748L32.4573 17.88C32.4373 18.086 32.3953 18.288 32.3953 18.5C32.3953 21.104 34.0733 23.302 36.3953 24.13V28.868C35.2291 29.279 34.2187 30.0408 33.5026 31.0487C32.7864 32.0567 32.3996 33.2615 32.3953 34.498C32.3953 34.62 32.4253 34.732 32.4313 34.852L25.9173 36.156ZM38.3953 36.5C37.8648 36.5 37.3561 36.2893 36.981 35.9142C36.606 35.5391 36.3953 35.0304 36.3953 34.5C36.3953 33.9696 36.606 33.4609 36.981 33.0858C37.3561 32.7107 37.8648 32.5 38.3953 32.5C38.9257 32.5 39.4344 32.7107 39.8095 33.0858C40.1846 33.4609 40.3953 33.9696 40.3953 34.5C40.3953 35.0304 40.1846 35.5391 39.8095 35.9142C39.4344 36.2893 38.9257 36.5 38.3953 36.5Z" fill="#00A96F"></path>
                    </svg>