<svg xmlns="http://www.w3.org/2000/svg" width="292" height="14" viewBox="0 0 292 14" fill="none">
                    <path d="M5.656 11.042C4.956 11.042 4.30733 10.916 3.71 10.664C3.11267 10.412 2.59 10.062 2.142 9.614C1.694 9.15667 1.344 8.62933 1.092 8.032C0.849333 7.43467 0.728 6.79067 0.728 6.1C0.728 5.40933 0.854 4.76533 1.106 4.168C1.358 3.57067 1.708 3.048 2.156 2.6C2.604 2.14267 3.12667 1.788 3.724 1.536C4.33067 1.284 4.984 1.158 5.684 1.158C6.384 1.158 7.03267 1.284 7.63 1.536C8.23667 1.77867 8.75933 2.124 9.198 2.572C9.646 3.02 9.99133 3.54267 10.234 4.14C10.486 4.728 10.612 5.372 10.612 6.072C10.612 6.772 10.486 7.42533 10.234 8.032C9.982 8.62933 9.62733 9.15667 9.17 9.614C8.722 10.062 8.19933 10.412 7.602 10.664C7.00467 10.916 6.356 11.042 5.656 11.042ZM5.642 10.524C6.27667 10.524 6.86 10.412 7.392 10.188C7.924 9.95467 8.39067 9.63733 8.792 9.236C9.20267 8.83467 9.52 8.36333 9.744 7.822C9.968 7.27133 10.08 6.688 10.08 6.072C10.08 5.44667 9.968 4.868 9.744 4.336C9.52933 3.804 9.22133 3.33733 8.82 2.936C8.428 2.53467 7.96133 2.22667 7.42 2.012C6.888 1.788 6.30933 1.676 5.684 1.676C5.04933 1.676 4.46133 1.788 3.92 2.012C3.37867 2.236 2.90733 2.55333 2.506 2.964C2.114 3.36533 1.806 3.832 1.582 4.364C1.358 4.896 1.246 5.47467 1.246 6.1C1.246 6.716 1.358 7.29467 1.582 7.836C1.806 8.368 2.114 8.83933 2.506 9.25C2.90733 9.65133 3.374 9.964 3.906 10.188C4.44733 10.412 5.026 10.524 5.642 10.524ZM5.782 9.012C5.222 9.012 4.72267 8.89067 4.284 8.648C3.84533 8.396 3.5 8.05067 3.248 7.612C2.996 7.17333 2.87 6.66933 2.87 6.1C2.87 5.53067 2.996 5.02667 3.248 4.588C3.5 4.14933 3.84533 3.80867 4.284 3.566C4.72267 3.314 5.222 3.188 5.782 3.188C6.258 3.188 6.68733 3.286 7.07 3.482C7.462 3.66867 7.77467 3.93 8.008 4.266L7.406 4.714C7.21 4.44333 6.972 4.24267 6.692 4.112C6.412 3.98133 6.104 3.916 5.768 3.916C5.36667 3.916 5.00733 4.00933 4.69 4.196C4.382 4.37333 4.13467 4.62533 3.948 4.952C3.76133 5.27867 3.668 5.66133 3.668 6.1C3.668 6.53867 3.76133 6.92133 3.948 7.248C4.13467 7.57467 4.382 7.83133 4.69 8.018C5.00733 8.19533 5.36667 8.284 5.768 8.284C6.104 8.284 6.412 8.21867 6.692 8.088C6.972 7.95733 7.21 7.75667 7.406 7.486L8.008 7.92C7.77467 8.26533 7.462 8.536 7.07 8.732C6.68733 8.91867 6.258 9.012 5.782 9.012ZM15.5304 11V10.286L19.6044 6.296C19.9777 5.932 20.2577 5.61467 20.4444 5.344C20.631 5.064 20.757 4.80267 20.8224 4.56C20.8877 4.31733 20.9204 4.08867 20.9204 3.874C20.9204 3.30467 20.7244 2.85667 20.3324 2.53C19.9497 2.20333 19.3804 2.04 18.6244 2.04C18.0457 2.04 17.5324 2.12867 17.0844 2.306C16.6457 2.48333 16.2677 2.75867 15.9504 3.132L15.2364 2.516C15.619 2.068 16.109 1.72267 16.7064 1.48C17.3037 1.23733 17.971 1.116 18.7084 1.116C19.371 1.116 19.945 1.22333 20.4304 1.438C20.9157 1.64333 21.289 1.94667 21.5504 2.348C21.821 2.74933 21.9564 3.22067 21.9564 3.762C21.9564 4.07933 21.9097 4.392 21.8164 4.7C21.7324 5.008 21.5737 5.33467 21.3404 5.68C21.1164 6.016 20.785 6.39867 20.3464 6.828L16.6084 10.496L16.3284 10.104H22.4044V11H15.5304ZM27.5481 11.084C26.7921 11.084 26.1201 10.888 25.5321 10.496C24.9441 10.0947 24.4821 9.52533 24.1461 8.788C23.8101 8.04133 23.6421 7.14533 23.6421 6.1C23.6421 5.05467 23.8101 4.16333 24.1461 3.426C24.4821 2.67933 24.9441 2.11 25.5321 1.718C26.1201 1.31667 26.7921 1.116 27.5481 1.116C28.3041 1.116 28.9761 1.31667 29.5641 1.718C30.1521 2.11 30.6141 2.67933 30.9501 3.426C31.2954 4.16333 31.4681 5.05467 31.4681 6.1C31.4681 7.14533 31.2954 8.04133 30.9501 8.788C30.6141 9.52533 30.1521 10.0947 29.5641 10.496C28.9761 10.888 28.3041 11.084 27.5481 11.084ZM27.5481 10.16C28.1267 10.16 28.6307 10.006 29.0601 9.698C29.4894 9.38067 29.8254 8.92333 30.0681 8.326C30.3107 7.71933 30.4321 6.97733 30.4321 6.1C30.4321 5.22267 30.3107 4.48533 30.0681 3.888C29.8254 3.28133 29.4894 2.824 29.0601 2.516C28.6307 2.19867 28.1267 2.04 27.5481 2.04C26.9881 2.04 26.4887 2.19867 26.0501 2.516C25.6114 2.824 25.2707 3.28133 25.0281 3.888C24.7854 4.48533 24.6641 5.22267 24.6641 6.1C24.6641 6.97733 24.7854 7.71933 25.0281 8.326C25.2707 8.92333 25.6114 9.38067 26.0501 9.698C26.4887 10.006 26.9881 10.16 27.5481 10.16ZM32.7296 11V10.286L36.8036 6.296C37.1769 5.932 37.4569 5.61467 37.6436 5.344C37.8303 5.064 37.9563 4.80267 38.0216 4.56C38.0869 4.31733 38.1196 4.08867 38.1196 3.874C38.1196 3.30467 37.9236 2.85667 37.5316 2.53C37.1489 2.20333 36.5796 2.04 35.8236 2.04C35.2449 2.04 34.7316 2.12867 34.2836 2.306C33.8449 2.48333 33.4669 2.75867 33.1496 3.132L32.4356 2.516C32.8183 2.068 33.3083 1.72267 33.9056 1.48C34.5029 1.23733 35.1703 1.116 35.9076 1.116C36.5703 1.116 37.1443 1.22333 37.6296 1.438C38.1149 1.64333 38.4883 1.94667 38.7496 2.348C39.0203 2.74933 39.1556 3.22067 39.1556 3.762C39.1556 4.07933 39.1089 4.392 39.0156 4.7C38.9316 5.008 38.7729 5.33467 38.5396 5.68C38.3156 6.016 37.9843 6.39867 37.5456 6.828L33.8076 10.496L33.5276 10.104H39.6036V11H32.7296ZM43.7946 11.084C43.0853 11.084 42.4133 10.972 41.7786 10.748C41.1533 10.5147 40.6493 10.2067 40.2666 9.824L40.7566 9.026C41.074 9.35267 41.4986 9.62333 42.0306 9.838C42.572 10.0527 43.16 10.16 43.7946 10.16C44.6066 10.16 45.2273 9.98267 45.6566 9.628C46.0953 9.27333 46.3146 8.79733 46.3146 8.2C46.3146 7.60267 46.1 7.12667 45.6706 6.772C45.2506 6.41733 44.5833 6.24 43.6686 6.24H42.9686V5.498L45.9926 1.704L46.1326 2.096H40.6726V1.2H46.9726V1.914L43.9486 5.708L43.4586 5.386H43.8366C45.0126 5.386 45.89 5.64733 46.4686 6.17C47.0566 6.69267 47.3506 7.36467 47.3506 8.186C47.3506 8.73667 47.22 9.23133 46.9586 9.67C46.6973 10.1087 46.3006 10.454 45.7686 10.706C45.246 10.958 44.588 11.084 43.7946 11.084ZM53.303 11V1.2H54.157L58.637 8.844H58.189L62.627 1.2H63.481V11H62.487V2.754H62.725L58.637 9.754H58.147L54.031 2.754H54.297V11H53.303ZM73.8421 1.2H74.8641V11H73.8421V1.2ZM67.7101 11H66.6741V1.2H67.7101V11ZM73.9401 6.478H67.5981V5.568H73.9401V6.478ZM78.0628 11V1.2H82.2908C83.3828 1.2 84.2275 1.41933 84.8248 1.858C85.4315 2.29667 85.7348 2.91733 85.7348 3.72C85.7348 4.252 85.6088 4.7 85.3568 5.064C85.1141 5.428 84.7781 5.70333 84.3488 5.89C83.9288 6.07667 83.4668 6.17 82.9628 6.17L83.2008 5.834C83.8261 5.834 84.3628 5.932 84.8108 6.128C85.2681 6.31467 85.6228 6.59933 85.8748 6.982C86.1268 7.35533 86.2528 7.822 86.2528 8.382C86.2528 9.21267 85.9448 9.85667 85.3288 10.314C84.7221 10.7713 83.8028 11 82.5708 11H78.0628ZM79.0988 10.146H82.5568C83.4155 10.146 84.0735 10.0013 84.5308 9.712C84.9881 9.41333 85.2168 8.942 85.2168 8.298C85.2168 7.66333 84.9881 7.20133 84.5308 6.912C84.0735 6.61333 83.4155 6.464 82.5568 6.464H78.9868V5.61H82.2208C83.0048 5.61 83.6115 5.46067 84.0408 5.162C84.4795 4.86333 84.6988 4.42 84.6988 3.832C84.6988 3.23467 84.4795 2.79133 84.0408 2.502C83.6115 2.20333 83.0048 2.054 82.2208 2.054H79.0988V10.146ZM90.7135 11L95.1935 1.2H96.2155L100.696 11H99.6035L95.4875 1.802H95.9075L91.7915 11H90.7135ZM92.4775 8.382L92.7855 7.542H98.4835L98.7915 8.382H92.4775ZM105.09 11.07C104.362 11.07 103.709 10.9113 103.13 10.594C102.561 10.2673 102.113 9.824 101.786 9.264C101.46 8.69467 101.296 8.046 101.296 7.318C101.296 6.58067 101.46 5.932 101.786 5.372C102.113 4.812 102.561 4.37333 103.13 4.056C103.709 3.73867 104.362 3.58 105.09 3.58C105.716 3.58 106.28 3.70133 106.784 3.944C107.288 4.18667 107.685 4.55067 107.974 5.036L107.232 5.54C106.98 5.16667 106.668 4.89133 106.294 4.714C105.921 4.53667 105.515 4.448 105.076 4.448C104.554 4.448 104.082 4.56933 103.662 4.812C103.242 5.04533 102.911 5.37667 102.668 5.806C102.426 6.23533 102.304 6.73933 102.304 7.318C102.304 7.89667 102.426 8.40067 102.668 8.83C102.911 9.25933 103.242 9.59533 103.662 9.838C104.082 10.0713 104.554 10.188 105.076 10.188C105.515 10.188 105.921 10.0993 106.294 9.922C106.668 9.74467 106.98 9.474 107.232 9.11L107.974 9.614C107.685 10.09 107.288 10.454 106.784 10.706C106.28 10.9487 105.716 11.07 105.09 11.07ZM114.533 11V9.376L114.491 9.11V6.394C114.491 5.76867 114.314 5.288 113.959 4.952C113.614 4.616 113.096 4.448 112.405 4.448C111.929 4.448 111.476 4.52733 111.047 4.686C110.618 4.84467 110.254 5.05467 109.955 5.316L109.507 4.574C109.88 4.25667 110.328 4.014 110.851 3.846C111.374 3.66867 111.924 3.58 112.503 3.58C113.455 3.58 114.188 3.818 114.701 4.294C115.224 4.76067 115.485 5.47467 115.485 6.436V11H114.533ZM111.999 11.07C111.448 11.07 110.968 10.9813 110.557 10.804C110.156 10.6173 109.848 10.3653 109.633 10.048C109.418 9.72133 109.311 9.348 109.311 8.928C109.311 8.54533 109.4 8.2 109.577 7.892C109.764 7.57467 110.062 7.32267 110.473 7.136C110.893 6.94 111.453 6.842 112.153 6.842H114.687V7.584H112.181C111.472 7.584 110.977 7.71 110.697 7.962C110.426 8.214 110.291 8.52667 110.291 8.9C110.291 9.32 110.454 9.656 110.781 9.908C111.108 10.16 111.565 10.286 112.153 10.286C112.713 10.286 113.194 10.16 113.595 9.908C114.006 9.64667 114.304 9.27333 114.491 8.788L114.715 9.474C114.528 9.95933 114.202 10.3467 113.735 10.636C113.278 10.9253 112.699 11.07 111.999 11.07ZM121.111 11.07C120.411 11.07 119.781 10.9113 119.221 10.594C118.67 10.2767 118.236 9.838 117.919 9.278C117.601 8.70867 117.443 8.05533 117.443 7.318C117.443 6.57133 117.601 5.918 117.919 5.358C118.236 4.798 118.67 4.364 119.221 4.056C119.781 3.73867 120.411 3.58 121.111 3.58C121.755 3.58 122.329 3.72467 122.833 4.014C123.346 4.30333 123.752 4.728 124.051 5.288C124.359 5.83867 124.513 6.51533 124.513 7.318C124.513 8.11133 124.363 8.788 124.065 9.348C123.766 9.908 123.36 10.3373 122.847 10.636C122.343 10.9253 121.764 11.07 121.111 11.07ZM121.181 10.188C121.703 10.188 122.17 10.0713 122.581 9.838C123.001 9.59533 123.327 9.25933 123.561 8.83C123.803 8.39133 123.925 7.88733 123.925 7.318C123.925 6.73933 123.803 6.23533 123.561 5.806C123.327 5.37667 123.001 5.04533 122.581 4.812C122.17 4.56933 121.703 4.448 121.181 4.448C120.667 4.448 120.205 4.56933 119.795 4.812C119.384 5.04533 119.057 5.37667 118.815 5.806C118.572 6.23533 118.451 6.73933 118.451 7.318C118.451 7.88733 118.572 8.39133 118.815 8.83C119.057 9.25933 119.384 9.59533 119.795 9.838C120.205 10.0713 120.667 10.188 121.181 10.188ZM123.953 11V8.788L124.051 7.304L123.911 5.82V0.611999H124.905V11H123.953ZM130.795 11.07C130.03 11.07 129.358 10.9113 128.779 10.594C128.2 10.2673 127.748 9.824 127.421 9.264C127.094 8.69467 126.931 8.046 126.931 7.318C126.931 6.59 127.085 5.946 127.393 5.386C127.71 4.826 128.14 4.38733 128.681 4.07C129.232 3.74333 129.848 3.58 130.529 3.58C131.22 3.58 131.831 3.73867 132.363 4.056C132.904 4.364 133.329 4.80267 133.637 5.372C133.945 5.932 134.099 6.58067 134.099 7.318C134.099 7.36467 134.094 7.416 134.085 7.472C134.085 7.51867 134.085 7.57 134.085 7.626H127.687V6.884H133.553L133.161 7.178C133.161 6.646 133.044 6.17467 132.811 5.764C132.587 5.344 132.279 5.01733 131.887 4.784C131.495 4.55067 131.042 4.434 130.529 4.434C130.025 4.434 129.572 4.55067 129.171 4.784C128.77 5.01733 128.457 5.344 128.233 5.764C128.009 6.184 127.897 6.66467 127.897 7.206V7.36C127.897 7.92 128.018 8.41467 128.261 8.844C128.513 9.264 128.858 9.59533 129.297 9.838C129.745 10.0713 130.254 10.188 130.823 10.188C131.271 10.188 131.686 10.1087 132.069 9.95C132.461 9.79133 132.797 9.54867 133.077 9.222L133.637 9.866C133.31 10.258 132.9 10.5567 132.405 10.762C131.92 10.9673 131.383 11.07 130.795 11.07ZM145.306 3.58C145.904 3.58 146.422 3.69667 146.86 3.93C147.308 4.154 147.654 4.49933 147.896 4.966C148.148 5.43267 148.274 6.02067 148.274 6.73V11H147.28V6.828C147.28 6.05333 147.094 5.47 146.72 5.078C146.356 4.67667 145.838 4.476 145.166 4.476C144.662 4.476 144.224 4.58333 143.85 4.798C143.486 5.00333 143.202 5.30667 142.996 5.708C142.8 6.1 142.702 6.576 142.702 7.136V11H141.708V6.828C141.708 6.05333 141.522 5.47 141.148 5.078C140.775 4.67667 140.252 4.476 139.58 4.476C139.086 4.476 138.652 4.58333 138.278 4.798C137.905 5.00333 137.616 5.30667 137.41 5.708C137.214 6.1 137.116 6.576 137.116 7.136V11H136.122V3.65H137.074V5.638L136.92 5.288C137.144 4.756 137.504 4.34067 137.998 4.042C138.502 3.734 139.095 3.58 139.776 3.58C140.495 3.58 141.106 3.762 141.61 4.126C142.114 4.48067 142.441 5.01733 142.59 5.736L142.198 5.582C142.413 4.98467 142.791 4.504 143.332 4.14C143.883 3.76667 144.541 3.58 145.306 3.58ZM150.889 13.786C150.544 13.786 150.213 13.73 149.895 13.618C149.587 13.506 149.321 13.338 149.097 13.114L149.559 12.372C149.746 12.5493 149.947 12.6847 150.161 12.778C150.385 12.8807 150.633 12.932 150.903 12.932C151.23 12.932 151.51 12.8387 151.743 12.652C151.986 12.4747 152.215 12.1573 152.429 11.7L152.905 10.622L153.017 10.468L156.041 3.65H157.021L153.339 11.882C153.134 12.358 152.905 12.736 152.653 13.016C152.411 13.296 152.145 13.492 151.855 13.604C151.566 13.7253 151.244 13.786 150.889 13.786ZM152.849 11.21L149.461 3.65H150.497L153.493 10.398L152.849 11.21ZM158.041 11.07C157.835 11.07 157.658 10.9953 157.509 10.846C157.369 10.6967 157.299 10.5147 157.299 10.3C157.299 10.076 157.369 9.894 157.509 9.754C157.658 9.614 157.835 9.544 158.041 9.544C158.246 9.544 158.419 9.614 158.559 9.754C158.708 9.894 158.783 10.076 158.783 10.3C158.783 10.5147 158.708 10.6967 158.559 10.846C158.419 10.9953 158.246 11.07 158.041 11.07ZM163.216 11L167.696 1.2H168.718L173.198 11H172.106L167.99 1.802H168.41L164.294 11H163.216ZM164.98 8.382L165.288 7.542H170.986L171.294 8.382H164.98ZM174.609 11V0.611999H175.603V11H174.609ZM178.368 11V0.611999H179.362V11H178.368ZM185.792 11V3.65H186.744V5.652L186.646 5.302C186.852 4.742 187.197 4.31733 187.682 4.028C188.168 3.72933 188.77 3.58 189.488 3.58V4.546C189.451 4.546 189.414 4.546 189.376 4.546C189.339 4.53667 189.302 4.532 189.264 4.532C188.49 4.532 187.883 4.77 187.444 5.246C187.006 5.71267 186.786 6.38 186.786 7.248V11H185.792ZM191.302 11V3.65H192.296V11H191.302ZM191.806 2.026C191.601 2.026 191.428 1.956 191.288 1.816C191.148 1.676 191.078 1.508 191.078 1.312C191.078 1.116 191.148 0.952666 191.288 0.821999C191.428 0.681999 191.601 0.611999 191.806 0.611999C192.011 0.611999 192.184 0.677333 192.324 0.807999C192.464 0.938666 192.534 1.102 192.534 1.298C192.534 1.50333 192.464 1.676 192.324 1.816C192.193 1.956 192.021 2.026 191.806 2.026ZM198.198 13.786C197.526 13.786 196.882 13.688 196.266 13.492C195.65 13.296 195.15 13.016 194.768 12.652L195.272 11.896C195.617 12.204 196.042 12.4467 196.546 12.624C197.059 12.8107 197.6 12.904 198.17 12.904C199.103 12.904 199.789 12.6847 200.228 12.246C200.666 11.8167 200.886 11.1447 200.886 10.23V8.396L201.026 7.136L200.928 5.876V3.65H201.88V10.104C201.88 11.3733 201.567 12.302 200.942 12.89C200.326 13.4873 199.411 13.786 198.198 13.786ZM198.016 10.72C197.316 10.72 196.686 10.5707 196.126 10.272C195.566 9.964 195.122 9.53933 194.796 8.998C194.478 8.45667 194.32 7.836 194.32 7.136C194.32 6.436 194.478 5.82 194.796 5.288C195.122 4.74667 195.566 4.32667 196.126 4.028C196.686 3.72933 197.316 3.58 198.016 3.58C198.669 3.58 199.257 3.71533 199.78 3.986C200.302 4.25667 200.718 4.658 201.026 5.19C201.334 5.722 201.488 6.37067 201.488 7.136C201.488 7.90133 201.334 8.55 201.026 9.082C200.718 9.614 200.302 10.02 199.78 10.3C199.257 10.58 198.669 10.72 198.016 10.72ZM198.114 9.838C198.655 9.838 199.136 9.726 199.556 9.502C199.976 9.26867 200.307 8.95133 200.55 8.55C200.792 8.13933 200.914 7.668 200.914 7.136C200.914 6.604 200.792 6.13733 200.55 5.736C200.307 5.33467 199.976 5.022 199.556 4.798C199.136 4.56467 198.655 4.448 198.114 4.448C197.582 4.448 197.101 4.56467 196.672 4.798C196.252 5.022 195.92 5.33467 195.678 5.736C195.444 6.13733 195.328 6.604 195.328 7.136C195.328 7.668 195.444 8.13933 195.678 8.55C195.92 8.95133 196.252 9.26867 196.672 9.502C197.101 9.726 197.582 9.838 198.114 9.838ZM208.398 3.58C208.995 3.58 209.518 3.69667 209.966 3.93C210.423 4.154 210.778 4.49933 211.03 4.966C211.291 5.43267 211.422 6.02067 211.422 6.73V11H210.428V6.828C210.428 6.05333 210.232 5.47 209.84 5.078C209.457 4.67667 208.916 4.476 208.216 4.476C207.693 4.476 207.236 4.58333 206.844 4.798C206.461 5.00333 206.162 5.30667 205.948 5.708C205.742 6.1 205.64 6.576 205.64 7.136V11H204.646V0.611999H205.64V5.666L205.444 5.288C205.677 4.756 206.05 4.34067 206.564 4.042C207.077 3.734 207.688 3.58 208.398 3.58ZM216.431 11.07C215.74 11.07 215.208 10.8833 214.835 10.51C214.461 10.1367 214.275 9.60933 214.275 8.928V2.026H215.269V8.872C215.269 9.30133 215.376 9.63267 215.591 9.866C215.815 10.0993 216.132 10.216 216.543 10.216C216.981 10.216 217.345 10.09 217.635 9.838L217.985 10.552C217.789 10.7293 217.551 10.86 217.271 10.944C217 11.028 216.72 11.07 216.431 11.07ZM212.959 4.476V3.65H217.509V4.476H212.959ZM221.768 11.07C221.162 11.07 220.588 10.986 220.046 10.818C219.505 10.6407 219.08 10.4213 218.772 10.16L219.22 9.376C219.519 9.6 219.902 9.796 220.368 9.964C220.835 10.1227 221.325 10.202 221.838 10.202C222.538 10.202 223.042 10.0947 223.35 9.88C223.658 9.656 223.812 9.362 223.812 8.998C223.812 8.72733 223.724 8.51733 223.546 8.368C223.378 8.20933 223.154 8.09267 222.874 8.018C222.594 7.934 222.282 7.864 221.936 7.808C221.591 7.752 221.246 7.68667 220.9 7.612C220.564 7.53733 220.256 7.43 219.976 7.29C219.696 7.14067 219.468 6.94 219.29 6.688C219.122 6.436 219.038 6.1 219.038 5.68C219.038 5.27867 219.15 4.91933 219.374 4.602C219.598 4.28467 219.925 4.03733 220.354 3.86C220.793 3.67333 221.325 3.58 221.95 3.58C222.426 3.58 222.902 3.64533 223.378 3.776C223.854 3.89733 224.246 4.06067 224.554 4.266L224.12 5.064C223.794 4.84 223.444 4.68133 223.07 4.588C222.697 4.48533 222.324 4.434 221.95 4.434C221.288 4.434 220.798 4.55067 220.48 4.784C220.172 5.008 220.018 5.29733 220.018 5.652C220.018 5.932 220.102 6.15133 220.27 6.31C220.448 6.46867 220.676 6.59467 220.956 6.688C221.246 6.772 221.558 6.842 221.894 6.898C222.24 6.954 222.58 7.024 222.916 7.108C223.262 7.18267 223.574 7.29 223.854 7.43C224.144 7.56067 224.372 7.752 224.54 8.004C224.718 8.24667 224.806 8.56867 224.806 8.97C224.806 9.39933 224.685 9.77267 224.442 10.09C224.209 10.398 223.864 10.6407 223.406 10.818C222.958 10.986 222.412 11.07 221.768 11.07ZM230.294 11V3.65H231.246V5.652L231.148 5.302C231.354 4.742 231.699 4.31733 232.184 4.028C232.67 3.72933 233.272 3.58 233.99 3.58V4.546C233.953 4.546 233.916 4.546 233.878 4.546C233.841 4.53667 233.804 4.532 233.766 4.532C232.992 4.532 232.385 4.77 231.946 5.246C231.508 5.71267 231.288 6.38 231.288 7.248V11H230.294ZM238.858 11.07C238.092 11.07 237.42 10.9113 236.842 10.594C236.263 10.2673 235.81 9.824 235.484 9.264C235.157 8.69467 234.994 8.046 234.994 7.318C234.994 6.59 235.148 5.946 235.456 5.386C235.773 4.826 236.202 4.38733 236.744 4.07C237.294 3.74333 237.91 3.58 238.592 3.58C239.282 3.58 239.894 3.73867 240.426 4.056C240.967 4.364 241.392 4.80267 241.7 5.372C242.008 5.932 242.162 6.58067 242.162 7.318C242.162 7.36467 242.157 7.416 242.148 7.472C242.148 7.51867 242.148 7.57 242.148 7.626H235.75V6.884H241.616L241.224 7.178C241.224 6.646 241.107 6.17467 240.874 5.764C240.65 5.344 240.342 5.01733 239.95 4.784C239.558 4.55067 239.105 4.434 238.592 4.434C238.088 4.434 237.635 4.55067 237.234 4.784C236.832 5.01733 236.52 5.344 236.296 5.764C236.072 6.184 235.96 6.66467 235.96 7.206V7.36C235.96 7.92 236.081 8.41467 236.324 8.844C236.576 9.264 236.921 9.59533 237.36 9.838C237.808 10.0713 238.316 10.188 238.886 10.188C239.334 10.188 239.749 10.1087 240.132 9.95C240.524 9.79133 240.86 9.54867 241.14 9.222L241.7 9.866C241.373 10.258 240.962 10.5567 240.468 10.762C239.982 10.9673 239.446 11.07 238.858 11.07ZM246.159 11.07C245.552 11.07 244.978 10.986 244.437 10.818C243.895 10.6407 243.471 10.4213 243.163 10.16L243.611 9.376C243.909 9.6 244.292 9.796 244.759 9.964C245.225 10.1227 245.715 10.202 246.229 10.202C246.929 10.202 247.433 10.0947 247.741 9.88C248.049 9.656 248.203 9.362 248.203 8.998C248.203 8.72733 248.114 8.51733 247.937 8.368C247.769 8.20933 247.545 8.09267 247.265 8.018C246.985 7.934 246.672 7.864 246.327 7.808C245.981 7.752 245.636 7.68667 245.291 7.612C244.955 7.53733 244.647 7.43 244.367 7.29C244.087 7.14067 243.858 6.94 243.681 6.688C243.513 6.436 243.429 6.1 243.429 5.68C243.429 5.27867 243.541 4.91933 243.765 4.602C243.989 4.28467 244.315 4.03733 244.745 3.86C245.183 3.67333 245.715 3.58 246.341 3.58C246.817 3.58 247.293 3.64533 247.769 3.776C248.245 3.89733 248.637 4.06067 248.945 4.266L248.511 5.064C248.184 4.84 247.834 4.68133 247.461 4.588C247.087 4.48533 246.714 4.434 246.341 4.434C245.678 4.434 245.188 4.55067 244.871 4.784C244.563 5.008 244.409 5.29733 244.409 5.652C244.409 5.932 244.493 6.15133 244.661 6.31C244.838 6.46867 245.067 6.59467 245.347 6.688C245.636 6.772 245.949 6.842 246.285 6.898C246.63 6.954 246.971 7.024 247.307 7.108C247.652 7.18267 247.965 7.29 248.245 7.43C248.534 7.56067 248.763 7.752 248.931 8.004C249.108 8.24667 249.197 8.56867 249.197 8.97C249.197 9.39933 249.075 9.77267 248.833 10.09C248.599 10.398 248.254 10.6407 247.797 10.818C247.349 10.986 246.803 11.07 246.159 11.07ZM254.143 11.07C253.377 11.07 252.705 10.9113 252.127 10.594C251.548 10.2673 251.095 9.824 250.769 9.264C250.442 8.69467 250.279 8.046 250.279 7.318C250.279 6.59 250.433 5.946 250.741 5.386C251.058 4.826 251.487 4.38733 252.029 4.07C252.579 3.74333 253.195 3.58 253.877 3.58C254.567 3.58 255.179 3.73867 255.711 4.056C256.252 4.364 256.677 4.80267 256.985 5.372C257.293 5.932 257.447 6.58067 257.447 7.318C257.447 7.36467 257.442 7.416 257.433 7.472C257.433 7.51867 257.433 7.57 257.433 7.626H251.035V6.884H256.901L256.509 7.178C256.509 6.646 256.392 6.17467 256.159 5.764C255.935 5.344 255.627 5.01733 255.235 4.784C254.843 4.55067 254.39 4.434 253.877 4.434C253.373 4.434 252.92 4.55067 252.519 4.784C252.117 5.01733 251.805 5.344 251.581 5.764C251.357 6.184 251.245 6.66467 251.245 7.206V7.36C251.245 7.92 251.366 8.41467 251.609 8.844C251.861 9.264 252.206 9.59533 252.645 9.838C253.093 10.0713 253.601 10.188 254.171 10.188C254.619 10.188 255.034 10.1087 255.417 9.95C255.809 9.79133 256.145 9.54867 256.425 9.222L256.985 9.866C256.658 10.258 256.247 10.5567 255.753 10.762C255.267 10.9673 254.731 11.07 254.143 11.07ZM259.47 11V3.65H260.422V5.652L260.324 5.302C260.529 4.742 260.875 4.31733 261.36 4.028C261.845 3.72933 262.447 3.58 263.166 3.58V4.546C263.129 4.546 263.091 4.546 263.054 4.546C263.017 4.53667 262.979 4.532 262.942 4.532C262.167 4.532 261.561 4.77 261.122 5.246C260.683 5.71267 260.464 6.38 260.464 7.248V11H259.47ZM267.184 11L263.922 3.65H264.958L267.954 10.468H267.464L270.502 3.65H271.482L268.206 11H267.184ZM275.799 11.07C275.034 11.07 274.362 10.9113 273.783 10.594C273.204 10.2673 272.752 9.824 272.425 9.264C272.098 8.69467 271.935 8.046 271.935 7.318C271.935 6.59 272.089 5.946 272.397 5.386C272.714 4.826 273.144 4.38733 273.685 4.07C274.236 3.74333 274.852 3.58 275.533 3.58C276.224 3.58 276.835 3.73867 277.367 4.056C277.908 4.364 278.333 4.80267 278.641 5.372C278.949 5.932 279.103 6.58067 279.103 7.318C279.103 7.36467 279.098 7.416 279.089 7.472C279.089 7.51867 279.089 7.57 279.089 7.626H272.691V6.884H278.557L278.165 7.178C278.165 6.646 278.048 6.17467 277.815 5.764C277.591 5.344 277.283 5.01733 276.891 4.784C276.499 4.55067 276.046 4.434 275.533 4.434C275.029 4.434 274.576 4.55067 274.175 4.784C273.774 5.01733 273.461 5.344 273.237 5.764C273.013 6.184 272.901 6.66467 272.901 7.206V7.36C272.901 7.92 273.022 8.41467 273.265 8.844C273.517 9.264 273.862 9.59533 274.301 9.838C274.749 10.0713 275.258 10.188 275.827 10.188C276.275 10.188 276.69 10.1087 277.073 9.95C277.465 9.79133 277.801 9.54867 278.081 9.222L278.641 9.866C278.314 10.258 277.904 10.5567 277.409 10.762C276.924 10.9673 276.387 11.07 275.799 11.07ZM284.052 11.07C283.352 11.07 282.722 10.9113 282.162 10.594C281.612 10.2767 281.178 9.838 280.86 9.278C280.543 8.70867 280.384 8.05533 280.384 7.318C280.384 6.57133 280.543 5.918 280.86 5.358C281.178 4.798 281.612 4.364 282.162 4.056C282.722 3.73867 283.352 3.58 284.052 3.58C284.696 3.58 285.27 3.72467 285.774 4.014C286.288 4.30333 286.694 4.728 286.992 5.288C287.3 5.83867 287.454 6.51533 287.454 7.318C287.454 8.11133 287.305 8.788 287.006 9.348C286.708 9.908 286.302 10.3373 285.788 10.636C285.284 10.9253 284.706 11.07 284.052 11.07ZM284.122 10.188C284.645 10.188 285.112 10.0713 285.522 9.838C285.942 9.59533 286.269 9.25933 286.502 8.83C286.745 8.39133 286.866 7.88733 286.866 7.318C286.866 6.73933 286.745 6.23533 286.502 5.806C286.269 5.37667 285.942 5.04533 285.522 4.812C285.112 4.56933 284.645 4.448 284.122 4.448C283.609 4.448 283.147 4.56933 282.736 4.812C282.326 5.04533 281.999 5.37667 281.756 5.806C281.514 6.23533 281.392 6.73933 281.392 7.318C281.392 7.88733 281.514 8.39133 281.756 8.83C281.999 9.25933 282.326 9.59533 282.736 9.838C283.147 10.0713 283.609 10.188 284.122 10.188ZM286.894 11V8.788L286.992 7.304L286.852 5.82V0.611999H287.846V11H286.894ZM290.713 11.07C290.507 11.07 290.33 10.9953 290.181 10.846C290.041 10.6967 289.971 10.5147 289.971 10.3C289.971 10.076 290.041 9.894 290.181 9.754C290.33 9.614 290.507 9.544 290.713 9.544C290.918 9.544 291.091 9.614 291.231 9.754C291.38 9.894 291.455 10.076 291.455 10.3C291.455 10.5147 291.38 10.6967 291.231 10.846C291.091 10.9953 290.918 11.07 290.713 11.07Z" fill="white"></path>
                </svg>