<svg xmlns="http://www.w3.org/2000/svg" width="4" height="4" viewBox="0 0 4 4" fill="none">
                                        <path d="M1.664 3.454C1.424 3.454 1.196 3.394 0.98 3.274C0.776 3.154 0.614 2.992 0.494 2.788C0.374 2.584 0.314 2.344 0.314 2.068C0.314 1.816 0.374 1.588 0.494 1.384C0.614 1.18 0.776 1.018 0.98 0.898C1.196 0.778 1.424 0.718 1.664 0.718C1.904 0.718 2.126 0.778 2.33 0.898C2.534 1.018 2.696 1.18 2.816 1.384C2.948 1.588 3.014 1.816 3.014 2.068C3.014 2.344 2.948 2.584 2.816 2.788C2.696 2.992 2.534 3.154 2.33 3.274C2.126 3.394 1.904 3.454 1.664 3.454Z" fill="#3C3D41"></path>
                                    </svg>