<svg xmlns="http://www.w3.org/2000/svg" width="101" height="40" viewBox="0 0 101 40" fill="none">
                        <path d="M29.2002 37.0713L33.7765 26.9561H35.2052L39.7961 37.0713H38.2803L34.1935 27.7652H34.7701L30.6833 37.0713H29.2002ZM31.1511 34.5425L31.5427 33.3851H37.2323L37.653 34.5425H31.1511Z" fill="#3C3D41"></path>
                        <path d="M44.3651 37.1583C43.5854 37.1583 42.8892 36.9915 42.28 36.654C41.6671 36.3166 41.1885 35.8559 40.844 35.2681C40.4959 34.6803 40.3254 34.0055 40.3254 33.2436C40.3254 32.4817 40.4995 31.8069 40.844 31.2191C41.1921 30.6314 41.6708 30.1706 42.28 29.8404C42.8928 29.5066 43.5854 29.3434 44.3651 29.3434C45.0577 29.3434 45.6778 29.4813 46.2217 29.757C46.7656 30.0327 47.1863 30.4391 47.4836 30.9797L46.4284 31.6581C46.1782 31.2808 45.8736 31.0051 45.511 30.8273C45.1483 30.6495 44.764 30.5588 44.3469 30.5588C43.8465 30.5588 43.3969 30.6713 43.0052 30.8926C42.61 31.1139 42.2981 31.4259 42.066 31.825C41.834 32.2241 41.7179 32.6994 41.7179 33.2472C41.7179 33.7951 41.834 34.274 42.066 34.6767C42.2981 35.0831 42.61 35.3951 43.0052 35.6164C43.4005 35.8377 43.8465 35.9502 44.3469 35.9502C44.7603 35.9502 45.1483 35.8595 45.511 35.6817C45.8736 35.5039 46.1782 35.2282 46.4284 34.8509L47.4836 35.5148C47.1863 36.0445 46.7656 36.4509 46.2217 36.7375C45.6778 37.0241 45.0577 37.1583 44.3651 37.1583Z" fill="#3C3D41"></path>
                        <path d="M51.5125 37.1583C50.9432 37.1583 50.4464 37.0604 50.0185 36.8681C49.5906 36.6758 49.2606 36.4073 49.0285 36.0663C48.7965 35.7252 48.6804 35.337 48.6804 34.9017C48.6804 34.4881 48.7783 34.1107 48.9778 33.7733C49.1736 33.4359 49.4963 33.1674 49.946 32.9642C50.392 32.7611 50.9976 32.6595 51.7591 32.6595H54.185V33.6572H51.8171C51.1245 33.6572 50.6567 33.7733 50.4174 34.0055C50.1781 34.2377 50.0548 34.5171 50.0548 34.8436C50.0548 35.2209 50.2034 35.5221 50.5008 35.747C50.7981 35.972 51.2115 36.0881 51.741 36.0881C52.2595 36.0881 52.7164 35.972 53.1044 35.7398C53.4961 35.5076 53.7753 35.1701 53.9493 34.7275L54.2249 35.6817C54.0436 36.1352 53.7209 36.4944 53.2567 36.7593C52.7998 37.0277 52.216 37.1583 51.5125 37.1583ZM54.0255 37.0713V35.4531L53.953 35.1484V32.3874C53.953 31.7996 53.7825 31.3461 53.4417 31.0232C53.1008 30.7003 52.5859 30.5407 51.9041 30.5407C51.4509 30.5407 51.0085 30.6168 50.5769 30.7656C50.1454 30.9144 49.7792 31.1139 49.4782 31.3642L48.9016 30.323C49.2969 30.0037 49.7719 29.7606 50.3231 29.5937C50.8779 29.4268 51.4581 29.3398 52.0637 29.3398C53.1117 29.3398 53.9203 29.5937 54.4897 30.1053C55.059 30.6169 55.3418 31.3969 55.3418 32.4454V37.0676H54.0255V37.0713Z" fill="#3C3D41"></path>
                        <path d="M61.0711 37.1584C60.3313 37.1584 59.6677 36.9951 59.0839 36.6686C58.5001 36.342 58.0396 35.8849 57.706 35.2971C57.3687 34.7094 57.2019 34.0273 57.2019 33.2436C57.2019 32.4599 57.3687 31.7815 57.706 31.201C58.0432 30.6169 58.5037 30.1633 59.0839 29.8368C59.6677 29.5103 60.3277 29.347 61.0711 29.347C61.7166 29.347 62.2968 29.4921 62.8189 29.7824C63.3375 30.0726 63.7545 30.5044 64.07 31.0813C64.3819 31.6581 64.5378 32.3801 64.5378 33.2472C64.5378 34.1144 64.3855 34.8364 64.0845 35.4132C63.7799 35.9901 63.3701 36.4255 62.848 36.7193C62.3294 37.0132 61.7383 37.1584 61.0711 37.1584ZM61.1871 35.9466C61.6694 35.9466 62.1046 35.8377 62.4926 35.6128C62.8842 35.3915 63.1888 35.0758 63.4173 34.6658C63.6421 34.2559 63.7581 33.7806 63.7581 33.2436C63.7581 32.6958 63.6457 32.2205 63.4173 31.8214C63.1925 31.4223 62.8842 31.1103 62.4926 30.889C62.101 30.6676 61.6658 30.5552 61.1871 30.5552C60.6976 30.5552 60.2588 30.6676 59.8744 30.889C59.4901 31.1103 59.1818 31.4223 58.9497 31.8214C58.7177 32.2205 58.6016 32.6958 58.6016 33.2436C58.6016 33.7842 58.7177 34.2559 58.9497 34.6658C59.1818 35.0758 59.4901 35.3915 59.8744 35.6128C60.2588 35.8341 60.6976 35.9466 61.1871 35.9466ZM63.8017 37.0713V35.0032L63.8887 33.2255L63.7436 31.4477V26.3466H65.1289V37.0676H63.8017V37.0713Z" fill="#3C3D41"></path>
                        <path d="M71.1666 37.1583C70.3471 37.1583 69.6291 36.9915 69.009 36.654C68.3889 36.3166 67.9066 35.8559 67.5657 35.2681C67.2249 34.6803 67.0544 34.0055 67.0544 33.2436C67.0544 32.4817 67.2213 31.8069 67.5512 31.2191C67.8849 30.6314 68.3418 30.1706 68.922 29.8404C69.5058 29.5066 70.1621 29.3434 70.8946 29.3434C71.6344 29.3434 72.2907 29.5066 72.8601 29.8332C73.4294 30.1597 73.8718 30.6205 74.1945 31.2119C74.5172 31.8032 74.6768 32.4962 74.6768 33.2835C74.6768 33.3416 74.6732 33.4069 74.6695 33.4867C74.6659 33.5629 74.6587 33.6354 74.6478 33.7044H68.1351V32.7066H73.9262L73.3641 33.0549C73.375 32.5652 73.2734 32.1261 73.0595 31.7416C72.8492 31.357 72.5555 31.0559 72.1856 30.8382C71.8157 30.6205 71.3842 30.5116 70.8946 30.5116C70.4123 30.5116 69.9844 30.6205 69.6109 30.8382C69.2338 31.0559 68.9401 31.357 68.7298 31.7488C68.5194 32.1407 68.4107 32.5833 68.4107 33.084V33.3162C68.4107 33.8277 68.5303 34.2813 68.766 34.6803C69.0017 35.0794 69.3317 35.3915 69.756 35.6128C70.1803 35.8341 70.6662 35.9466 71.2137 35.9466C71.667 35.9466 72.0768 35.8704 72.4467 35.7144C72.8165 35.5583 73.1429 35.3298 73.4221 35.0214L74.1873 35.9175C73.8391 36.3203 73.4112 36.6286 72.8963 36.8427C72.3778 37.0531 71.8048 37.1583 71.1666 37.1583Z" fill="#3C3D41"></path>
                        <path d="M86.1719 29.3434C86.7884 29.3434 87.3323 29.4631 87.8037 29.7062C88.2751 29.9457 88.645 30.3121 88.9097 30.8055C89.1745 31.2953 89.3086 31.9193 89.3086 32.6704V37.0785H87.9234V32.83C87.9234 32.0899 87.7494 31.5311 87.4049 31.1538C87.0604 30.7765 86.5708 30.5915 85.9471 30.5915C85.4866 30.5915 85.0804 30.6894 84.7323 30.8817C84.3842 31.074 84.1195 31.357 83.9309 31.7343C83.7424 32.1116 83.6481 32.576 83.6481 33.1348V37.0785H82.2628V32.83C82.2628 32.0899 82.0924 31.5311 81.7516 31.1538C81.4107 30.7765 80.9211 30.5915 80.2866 30.5915C79.8333 30.5915 79.4344 30.6894 79.0863 30.8817C78.7382 31.074 78.4698 31.357 78.2776 31.7343C78.0854 32.1116 77.9875 32.576 77.9875 33.1348V37.0785H76.6023V29.4196H77.9295V31.4586L77.7119 30.9398C77.9513 30.4391 78.3248 30.0472 78.8252 29.7679C79.3256 29.4885 79.9094 29.347 80.573 29.347C81.3055 29.347 81.9365 29.5284 82.4659 29.8876C82.9953 30.2504 83.3435 30.7946 83.5067 31.5275L82.9446 31.2953C83.1767 30.7076 83.5792 30.2359 84.1557 29.8803C84.7287 29.5212 85.4032 29.3434 86.1719 29.3434Z" fill="#3C3D41"></path>
                        <path d="M92.0501 39.9629C91.6839 39.9629 91.3285 39.9012 90.9804 39.7815C90.6323 39.6617 90.3349 39.484 90.0847 39.2554L90.6758 38.2141C90.868 38.3955 91.0819 38.537 91.3104 38.6314C91.5425 38.7293 91.7854 38.7765 92.0465 38.7765C92.3838 38.7765 92.663 38.6894 92.8842 38.5153C93.1054 38.3411 93.3121 38.0327 93.5043 37.5901L93.9793 36.5343L94.1244 36.3602L97.1269 29.4087H98.4831L94.7698 37.8332C94.5486 38.3738 94.302 38.7983 94.0264 39.103C93.7508 39.4078 93.4499 39.6291 93.1235 39.7597C92.8044 39.8976 92.4454 39.9629 92.0501 39.9629ZM93.8705 37.318L90.3748 29.4159H91.8181L94.7916 36.2368L93.8705 37.318Z" fill="#3C3D41"></path>
                        <path d="M29.2256 23.2844V3.28262H33.8817L42.164 16.8844H39.709L47.7629 3.28262H52.419L52.477 23.2844H47.2806L47.2226 11.1992H48.1074L42.0806 21.3144H39.5676L33.3704 11.1992H34.4546V23.2844H29.2256Z" fill="#3C3D41"></path>
                        <path d="M62.1301 23.2844H56.4768V3.28262H62.1301V23.2844ZM70.2384 15.484H61.7276V10.8001H70.2384V15.484ZM69.8395 3.28262H75.4928V23.2844H69.8395V3.28262Z" fill="#3C3D41"></path>
                        <path d="M79.4924 23.2844V3.28262H89.7184C92.3474 3.28262 94.3056 3.76516 95.6038 4.72661C96.8984 5.68807 97.5475 6.95065 97.5475 8.51437C97.5475 9.54475 97.2755 10.4445 96.7316 11.2137C96.1876 11.9865 95.4261 12.596 94.447 13.0423C93.4643 13.4885 92.3003 13.7135 90.9477 13.7135L91.5207 12.342C92.9313 12.342 94.1569 12.5561 95.2049 12.9842C96.2529 13.4123 97.0652 14.0327 97.6454 14.8418C98.2256 15.6509 98.5157 16.6377 98.5157 17.7987C98.5157 19.533 97.8158 20.879 96.4161 21.8404C95.0164 22.8019 92.9748 23.2844 90.2914 23.2844H79.4924ZM85.0913 19.1992H89.8308C90.8027 19.1992 91.5388 19.0323 92.0428 18.6985C92.5469 18.3647 92.8007 17.8568 92.8007 17.1711C92.8007 16.4853 92.5469 15.9774 92.0428 15.6436C91.5388 15.3098 90.799 15.1429 89.8308 15.1429H84.6888V11.2282H88.9714C89.9215 11.2282 90.6359 11.0649 91.1145 10.742C91.5896 10.4191 91.8289 9.93296 91.8289 9.28353C91.8289 8.63773 91.5896 8.15519 91.1145 7.83954C90.6395 7.52389 89.9251 7.36789 88.9714 7.36789H85.0877V19.1992H85.0913Z" fill="#3C3D41"></path>
                        <path d="M21.0446 3.23907V18.2377H3.58789V3.23907L12.3163 11.3153L21.0446 3.23907Z" fill="#605DA9"></path>
                        <path d="M21.0446 22.2577V37.093L12.3163 29.0168L3.58789 37.093V22.2577H21.0446Z" fill="#18AC6F"></path>
                    </svg>