<svg width="101" height="41" viewBox="0 0 101 41" fill="none" xmlns="http://www.w3.org/2000/svg">
<g clip-path="url(#clip0_6231_9006)">
<path d="M29.2002 37.2714L33.7765 27.1562H35.2052L39.7961 37.2714H38.2803L34.1935 27.9653H34.7701L30.6833 37.2714H29.2002ZM31.1511 34.7426L31.5427 33.5853H37.2323L37.653 34.7426H31.1511Z" fill="#F4F4F4"/>
<path d="M44.3651 37.3589C43.5854 37.3589 42.8892 37.192 42.28 36.8546C41.6671 36.5172 41.1885 36.0564 40.844 35.4687C40.4959 34.8809 40.3254 34.2061 40.3254 33.4442C40.3254 32.6823 40.4995 32.0074 40.844 31.4197C41.1921 30.8319 41.6708 30.3712 42.28 30.041C42.8928 29.7072 43.5854 29.5439 44.3651 29.5439C45.0577 29.5439 45.6778 29.6818 46.2217 29.9576C46.7656 30.2333 47.1863 30.6396 47.4836 31.1802L46.4284 31.8587C46.1782 31.4814 45.8736 31.2056 45.511 31.0278C45.1483 30.8501 44.764 30.7594 44.3469 30.7594C43.8465 30.7594 43.3969 30.8718 43.0052 31.0932C42.61 31.3145 42.2981 31.6265 42.066 32.0256C41.834 32.4247 41.7179 32.9 41.7179 33.4478C41.7179 33.9956 41.834 34.4746 42.066 34.8773C42.2981 35.2836 42.61 35.5956 43.0052 35.817C43.4005 36.0383 43.8465 36.1507 44.3469 36.1507C44.7603 36.1507 45.1483 36.06 45.511 35.8823C45.8736 35.7045 46.1782 35.4288 46.4284 35.0514L47.4836 35.7154C47.1863 36.2451 46.7656 36.6514 46.2217 36.938C45.6778 37.2247 45.0577 37.3589 44.3651 37.3589Z" fill="#F4F4F4"/>
<path d="M51.5125 37.3586C50.9432 37.3586 50.4464 37.2607 50.0185 37.0684C49.5906 36.8761 49.2606 36.6076 49.0285 36.2666C48.7965 35.9255 48.6804 35.5373 48.6804 35.1019C48.6804 34.6883 48.7783 34.311 48.9778 33.9736C49.1736 33.6362 49.4963 33.3677 49.946 33.1645C50.392 32.9614 50.9976 32.8598 51.7591 32.8598H54.185V33.8575H51.8171C51.1245 33.8575 50.6567 33.9736 50.4174 34.2058C50.1781 34.438 50.0548 34.7174 50.0548 35.0439C50.0548 35.4212 50.2034 35.7224 50.5008 35.9473C50.7981 36.1722 51.2115 36.2883 51.741 36.2883C52.2595 36.2883 52.7164 36.1722 53.1044 35.94C53.4961 35.7078 53.7753 35.3704 53.9493 34.9278L54.2249 35.882C54.0436 36.3355 53.7209 36.6947 53.2567 36.9595C52.7998 37.228 52.216 37.3586 51.5125 37.3586ZM54.0255 37.2716V35.6534L53.953 35.3487V32.5877C53.953 31.9999 53.7825 31.5464 53.4417 31.2235C53.1008 30.9006 52.5859 30.7409 51.9041 30.7409C51.4509 30.7409 51.0085 30.8171 50.5769 30.9659C50.1454 31.1146 49.7792 31.3142 49.4782 31.5645L48.9016 30.5233C49.2969 30.204 49.7719 29.9609 50.3231 29.794C50.8779 29.6271 51.4581 29.54 52.0637 29.54C53.1117 29.54 53.9203 29.794 54.4897 30.3056C55.059 30.8171 55.3418 31.5972 55.3418 32.6457V37.2679H54.0255V37.2716Z" fill="#F4F4F4"/>
<path d="M61.0711 37.3587C60.3313 37.3587 59.6677 37.1954 59.0839 36.8689C58.5001 36.5423 58.0396 36.0852 57.706 35.4974C57.3687 34.9097 57.2019 34.2276 57.2019 33.4439C57.2019 32.6603 57.3687 31.9818 57.706 31.4013C58.0432 30.8172 58.5037 30.3637 59.0839 30.0371C59.6677 29.7106 60.3277 29.5473 61.0711 29.5473C61.7166 29.5473 62.2968 29.6925 62.8189 29.9827C63.3375 30.273 63.7545 30.7047 64.07 31.2816C64.3819 31.8584 64.5378 32.5804 64.5378 33.4476C64.5378 34.3147 64.3855 35.0367 64.0845 35.6135C63.7799 36.1904 63.3701 36.6258 62.848 36.9197C62.3294 37.2135 61.7383 37.3587 61.0711 37.3587ZM61.1871 36.1469C61.6694 36.1469 62.1046 36.038 62.4926 35.8131C62.8842 35.5918 63.1888 35.2761 63.4173 34.8661C63.6421 34.4562 63.7581 33.9809 63.7581 33.4439C63.7581 32.8961 63.6457 32.4208 63.4173 32.0217C63.1925 31.6226 62.8842 31.3106 62.4926 31.0893C62.101 30.868 61.6658 30.7555 61.1871 30.7555C60.6976 30.7555 60.2588 30.868 59.8744 31.0893C59.4901 31.3106 59.1818 31.6226 58.9497 32.0217C58.7177 32.4208 58.6016 32.8961 58.6016 33.4439C58.6016 33.9845 58.7177 34.4562 58.9497 34.8661C59.1818 35.2761 59.4901 35.5918 59.8744 35.8131C60.2588 36.0344 60.6976 36.1469 61.1871 36.1469ZM63.8017 37.2716V35.2036L63.8887 33.4258L63.7436 31.648V26.5469H65.1289V37.268H63.8017V37.2716Z" fill="#F4F4F4"/>
<path d="M71.1666 37.3589C70.3471 37.3589 69.6291 37.192 69.009 36.8546C68.3889 36.5172 67.9066 36.0564 67.5657 35.4687C67.2249 34.8809 67.0544 34.2061 67.0544 33.4442C67.0544 32.6823 67.2213 32.0074 67.5512 31.4197C67.8849 30.8319 68.3418 30.3712 68.922 30.041C69.5058 29.7072 70.1621 29.5439 70.8946 29.5439C71.6344 29.5439 72.2907 29.7072 72.8601 30.0337C73.4294 30.3603 73.8718 30.821 74.1945 31.4124C74.5172 32.0038 74.6768 32.6968 74.6768 33.4841C74.6768 33.5421 74.6732 33.6074 74.6695 33.6873C74.6659 33.7634 74.6587 33.836 74.6478 33.9049H68.1351V32.9072H73.9262L73.3641 33.2555C73.375 32.7657 73.2734 32.3267 73.0595 31.9421C72.8492 31.5575 72.5555 31.2564 72.1856 31.0387C71.8157 30.821 71.3842 30.7122 70.8946 30.7122C70.4123 30.7122 69.9844 30.821 69.6109 31.0387C69.2338 31.2564 68.9401 31.5575 68.7298 31.9494C68.5194 32.3412 68.4107 32.7839 68.4107 33.2845V33.5167C68.4107 34.0283 68.5303 34.4818 68.766 34.8809C69.0017 35.28 69.3317 35.592 69.756 35.8133C70.1803 36.0346 70.6662 36.1471 71.2137 36.1471C71.667 36.1471 72.0768 36.0709 72.4467 35.9149C72.8165 35.7589 73.1429 35.5303 73.4221 35.2219L74.1873 36.1181C73.8391 36.5208 73.4112 36.8292 72.8963 37.0433C72.3778 37.2537 71.8048 37.3589 71.1666 37.3589Z" fill="#F4F4F4"/>
<path d="M86.1719 29.5439C86.7884 29.5439 87.3323 29.6637 87.8037 29.9068C88.2751 30.1462 88.645 30.5126 88.9097 31.0061C89.1745 31.4959 89.3086 32.1199 89.3086 32.8709V37.2791H87.9234V33.0306C87.9234 32.2904 87.7494 31.7317 87.4049 31.3544C87.0604 30.9771 86.5708 30.792 85.9471 30.792C85.4866 30.792 85.0804 30.89 84.7323 31.0823C84.3842 31.2746 84.1195 31.5576 83.9309 31.9349C83.7424 32.3122 83.6481 32.7766 83.6481 33.3353V37.2791H82.2628V33.0306C82.2628 32.2904 82.0924 31.7317 81.7516 31.3544C81.4107 30.9771 80.9211 30.792 80.2866 30.792C79.8333 30.792 79.4344 30.89 79.0863 31.0823C78.7382 31.2746 78.4698 31.5576 78.2776 31.9349C78.0854 32.3122 77.9875 32.7766 77.9875 33.3353V37.2791H76.6023V29.6201H77.9295V31.6591L77.7119 31.1403C77.9513 30.6396 78.3248 30.2478 78.8252 29.9684C79.3256 29.6891 79.9094 29.5476 80.573 29.5476C81.3055 29.5476 81.9365 29.729 82.4659 30.0882C82.9953 30.451 83.3435 30.9952 83.5067 31.7281L82.9446 31.4959C83.1767 30.9081 83.5792 30.4365 84.1557 30.0809C84.7287 29.7217 85.4032 29.5439 86.1719 29.5439Z" fill="#F4F4F4"/>
<path d="M92.0501 40.1636C91.6839 40.1636 91.3285 40.1019 90.9804 39.9822C90.6323 39.8624 90.3349 39.6847 90.0847 39.4561L90.6758 38.4148C90.868 38.5962 91.0819 38.7377 91.3104 38.832C91.5425 38.93 91.7854 38.9772 92.0465 38.9772C92.3838 38.9772 92.663 38.8901 92.8842 38.7159C93.1054 38.5418 93.3121 38.2334 93.5043 37.7908L93.9793 36.735L94.1244 36.5608L97.1269 29.6094H98.4831L94.7698 38.0339C94.5486 38.5745 94.302 38.9989 94.0264 39.3037C93.7508 39.6085 93.4499 39.8298 93.1235 39.9604C92.8044 40.0983 92.4454 40.1636 92.0501 40.1636ZM93.8705 37.5187L90.3748 29.6166H91.8181L94.7916 36.4375L93.8705 37.5187Z" fill="#F4F4F4"/>
<path d="M29.2256 23.4842V3.48242H33.8817L42.164 17.0842H39.709L47.7629 3.48242H52.419L52.477 23.4842H47.2806L47.2226 11.399H48.1074L42.0806 21.5142H39.5676L33.3704 11.399H34.4546V23.4842H29.2256Z" fill="#F4F4F4"/>
<path d="M62.1301 23.4842H56.4768V3.48242H62.1301V23.4842ZM70.2384 15.6838H61.7276V10.9999H70.2384V15.6838ZM69.8395 3.48242H75.4928V23.4842H69.8395V3.48242Z" fill="#F4F4F4"/>
<path d="M79.4924 23.4842V3.48242H89.7184C92.3474 3.48242 94.3056 3.96496 95.6038 4.92641C96.8984 5.88786 97.5475 7.15045 97.5475 8.71417C97.5475 9.74455 97.2755 10.6443 96.7316 11.4135C96.1876 12.1863 95.4261 12.7958 94.447 13.2421C93.4643 13.6883 92.3003 13.9133 90.9477 13.9133L91.5207 12.5418C92.9313 12.5418 94.1569 12.7559 95.2049 13.184C96.2529 13.6121 97.0652 14.2325 97.6454 15.0416C98.2256 15.8507 98.5157 16.8375 98.5157 17.9985C98.5157 19.7328 97.8158 21.0788 96.4161 22.0402C95.0164 23.0017 92.9748 23.4842 90.2914 23.4842H79.4924ZM85.0913 19.399H89.8308C90.8027 19.399 91.5388 19.2321 92.0428 18.8983C92.5469 18.5645 92.8007 18.0566 92.8007 17.3709C92.8007 16.6851 92.5469 16.1772 92.0428 15.8434C91.5388 15.5096 90.799 15.3427 89.8308 15.3427H84.6888V11.428H88.9714C89.9215 11.428 90.6359 11.2647 91.1145 10.9418C91.5896 10.6189 91.8289 10.1328 91.8289 9.48333C91.8289 8.83752 91.5896 8.35498 91.1145 8.03934C90.6395 7.72369 89.9251 7.56768 88.9714 7.56768H85.0877V19.399H85.0913Z" fill="#F4F4F4"/>
<path d="M21.0446 3.43945V18.4381H3.58789V3.43945L12.3163 11.5156L21.0446 3.43945Z" fill="#605DA9"/>
<path d="M21.0446 22.458V37.2934L12.3163 29.2172L3.58789 37.2934V22.458H21.0446Z" fill="#18AC6F"/>
</g>
<defs>
<clipPath id="clip0_6231_9006">
<rect width="101.01" height="40" fill="white" transform="translate(0 0.200195)"/>
</clipPath>
</defs>
</svg>
