<svg xmlns="http://www.w3.org/2000/svg" width="140" height="30" viewBox="0 0 140 30" fill="none">
                    <path d="M1.68555 2.42465C4.86075 2.43023 8.03035 2.36888 11.2055 2.44138C14.9631 2.65888 18.2951 5.19081 20.0871 8.40869C21.9071 11.8218 23.4975 15.352 25.3399 18.7539C25.9447 19.9529 27.1431 20.7895 28.5095 20.8229C28.4591 14.6827 28.4871 8.54254 28.4927 2.40234C31.2759 2.42465 34.0591 2.4135 36.8367 2.41907C36.8255 5.096 36.8423 7.76734 36.8031 10.4443C34.8711 11.1804 33.2527 12.887 33.2079 15.0341C32.9391 17.3764 34.6751 19.451 36.8087 20.1983C36.8479 22.8864 36.8143 25.5745 36.8423 28.2625C34.0759 28.2848 31.3095 28.2625 28.5487 28.2848C25.3455 28.4466 22.1815 26.952 20.1151 24.5483C17.8639 21.7933 16.6935 18.3635 14.9631 15.2906C13.7927 13.1547 12.9639 9.93119 10.0071 9.79177C10.0127 15.9431 9.97915 22.0945 10.0295 28.2458C7.25195 28.2904 4.46875 28.2793 1.69115 28.257C1.71355 19.6462 1.71915 11.0354 1.68555 2.42465Z" fill="#656565"></path>
                    <path d="M39.2671 2.43552C62.8039 2.41879 86.3407 2.3686 109.877 2.45783C113.383 8.81552 116.978 15.1174 120.461 21.4863C123.939 15.1788 127.137 8.71514 130.592 2.39648C133.543 2.45225 136.494 2.35745 139.451 2.46341C138.958 3.18283 138.46 3.8911 138.045 4.66072C133.89 12.5409 129.69 20.4044 125.507 28.2734C122.136 28.2734 118.765 28.2678 115.393 28.2734C111.748 21.6815 108.013 15.1342 104.356 8.54783C100.643 8.50879 96.9303 8.54225 93.2175 8.5311C93.2119 15.1119 93.2455 21.6926 93.2007 28.2678C90.5351 28.2734 87.8639 28.279 85.1983 28.2623C85.1983 21.6815 85.2319 15.0951 85.1815 8.50879C81.0879 8.55341 76.9943 8.51995 72.9063 8.5311C73.6511 11.3586 73.5839 14.2976 73.4887 17.1921C73.3655 20.1423 72.5759 23.2653 70.3751 25.3734C68.2639 27.5428 65.0943 28.2901 62.1487 28.279C54.5327 28.2567 46.9167 28.3013 39.3007 28.2511C39.3231 25.563 39.2895 22.8749 39.3343 20.1924C41.1319 19.4953 42.7111 17.9951 42.8791 15.9986C43.2711 13.5559 41.5743 11.2805 39.3287 10.4607C39.2895 7.78379 39.3511 5.10687 39.2671 2.43552ZM47.3815 8.58129C47.4487 13.0763 47.4039 17.5769 47.4095 22.0719C51.9679 22.1332 56.5263 22.0942 61.0903 22.0998C62.8823 22.1778 64.9935 21.1963 65.2399 19.2388C65.3855 16.7292 65.3463 14.2028 65.2623 11.6876C65.0887 9.64648 62.9551 8.51437 61.0735 8.55341C56.5095 8.5311 51.9455 8.47533 47.3815 8.58129Z" fill="#656565"></path>
                    <path d="M33.208 15.0337C33.2528 12.8865 34.8712 11.18 36.8032 10.4438C37.6432 10.3546 38.4888 10.3602 39.3288 10.4606C41.5744 11.2804 43.2712 13.5558 42.8792 15.9985C42.7112 17.995 41.132 19.4952 39.3344 20.1923C38.4944 20.276 37.6544 20.2815 36.8088 20.1979C34.6752 19.4506 32.9392 17.376 33.208 15.0337Z" fill="#9D9D9D"></path>
                </svg>