<svg width="18" height="18" viewBox="0 0 18 18" fill="none" xmlns="http://www.w3.org/2000/svg">
<path d="M7.21442 0.428543C9.01411 0.428543 10.7401 1.14346 12.0126 2.41603C13.2852 3.6886 14.0001 5.41457 14.0001 7.21425C14.0001 8.7014 13.5216 10.0764 12.7109 11.195L17.258 15.7421C17.4546 15.9358 17.5689 16.198 17.5769 16.4739C17.585 16.7498 17.4863 17.0182 17.3014 17.2231C17.1164 17.428 16.8596 17.5537 16.5843 17.5738C16.309 17.594 16.0365 17.5072 15.8237 17.3314L15.7423 17.2578L11.1951 12.7107C10.0381 13.5509 8.64433 14.0023 7.21442 14C5.41474 14 3.68877 13.285 2.4162 12.0125C1.14363 10.7399 0.428711 9.01394 0.428711 7.21425C0.428711 5.41457 1.14363 3.6886 2.4162 2.41603C3.68877 1.14346 5.41474 0.428543 7.21442 0.428543ZM7.21442 2.5714C5.98306 2.5714 4.80213 3.06056 3.93143 3.93126C3.06072 4.80196 2.57157 5.98289 2.57157 7.21425C2.57157 8.44561 3.06072 9.62654 3.93143 10.4972C4.80213 11.368 5.98306 11.8571 7.21442 11.8571C8.44579 11.8571 9.62671 11.368 10.4974 10.4972C11.3681 9.62654 11.8573 8.44561 11.8573 7.21425C11.8573 5.98289 11.3681 4.80196 10.4974 3.93126C9.62671 3.06056 8.44579 2.5714 7.21442 2.5714Z" fill="#447AB2"/>
</svg>
