<svg class="hidden md:inline" xmlns="http://www.w3.org/2000/svg" width="37" height="32" viewBox="0 0 37 32" fill="none">
                    <mask id="mask0_6841_1826" style="mask-type:luminance" maskUnits="userSpaceOnUse" x="0" y="0" width="37" height="32">
                        <path d="M36.3738 0.291901H0.0101318V31.708H36.3738V0.291901Z" fill="white"></path>
                    </mask>
                    <g mask="url(#mask0_6841_1826)">
                        <path d="M25.2221 0.453255C23.0003 0.955707 21.3434 2.94385 21.3434 5.2944V15.0547H15.0802V9.73126C15.0395 9.20864 14.5952 8.76682 14.0695 8.80726C13.5438 8.8274 13.1605 9.26922 13.1605 9.77169V26.7251C13.1401 27.9307 12.4126 28.9745 11.4033 29.477C11.2015 29.5781 10.9996 29.6575 10.7571 29.7181C10.3331 29.8192 10.0499 30.2003 10.0499 30.6219C10.0499 31.2241 10.6163 31.6659 11.2015 31.5258C13.4233 31.0233 15.0802 29.0554 15.0802 26.7049V16.9432H21.3434V22.1857C21.3434 22.6881 21.7471 23.1502 22.2524 23.1502C22.7984 23.1704 23.2428 22.7488 23.2428 22.2059V5.29295C23.2428 3.98774 24.0502 2.86299 25.2018 2.40097C25.3427 2.34033 25.5053 2.28113 25.6461 2.26092C26.0701 2.15985 26.3736 1.77869 26.3736 1.35709C26.3736 0.755016 25.8073 0.313204 25.2221 0.453255Z" fill="#00A96F"></path>
                        <path d="M34.1941 15.98C33.4056 15.4372 32.4573 15.1167 31.4263 15.0964H23.2448V16.9849H31.4263C33.1239 17.0254 34.4773 18.4114 34.4773 20.0978C34.4773 21.7842 33.1239 23.1717 31.4263 23.2107H29.5472V26.7062C29.5472 28.394 28.1734 29.7988 26.457 29.8191C24.6999 29.8595 23.2448 28.3926 23.2448 26.6455V26.0233C23.2448 25.5006 22.8208 25.079 22.2951 25.079C21.7694 25.079 21.3453 25.5006 21.3453 26.0233V26.7062C21.3453 29.4985 23.6485 31.748 26.457 31.7076C29.2248 31.6672 31.4263 29.3773 31.4263 26.6254V25.0588C34.1534 24.9982 36.3752 22.7891 36.3752 20.0574C36.3752 18.3508 35.5069 16.8434 34.1941 15.98Z" fill="#605EA8"></path>
                        <path d="M9.92984 0.2924C7.16203 0.332827 4.96055 2.62273 4.96055 5.37466V6.92099C2.23194 6.98164 0.0101318 9.19069 0.0101318 11.9224C0.0101318 13.629 0.878525 15.1364 2.1724 16.0402C2.96092 16.5831 3.90919 16.9036 4.94023 16.9238H13.1217V15.0151H4.93877C3.24119 14.9746 1.88778 13.5886 1.88778 11.9022C1.88778 10.2158 3.24119 8.82974 4.93877 8.78931H6.8382V5.29381C6.8382 3.60598 8.21195 2.20114 9.92839 2.18092C11.6856 2.14049 13.1406 3.60742 13.1406 5.35445V5.97674C13.1406 6.4994 13.5646 6.92099 14.0903 6.92099C14.616 6.92099 15.04 6.4994 15.04 5.97674V5.29381C15.04 2.50289 12.7369 0.253417 9.92984 0.2924Z" fill="#605EA8"></path>
                    </g>
                </svg>