<svg xmlns="http://www.w3.org/2000/svg" width="16" height="17" viewBox="0 0 16 17" fill="none">
                                <path d="M7.25672 1.43421C7.53172 0.781043 8.46832 0.781044 8.74332 1.43421L10.3663 5.28933C10.4823 5.56469 10.7445 5.75284 11.0454 5.77667L15.2582 6.11033C15.9719 6.16686 16.2614 7.04686 15.7175 7.50707L12.5079 10.2233C12.2786 10.4173 12.1784 10.7218 12.2485 11.0118L13.2291 15.0732C13.3952 15.7613 12.6375 16.3052 12.0264 15.9365L8.41965 13.76C8.16202 13.6045 7.83802 13.6045 7.5804 13.76L3.9736 15.9365C3.3625 16.3052 2.60477 15.7613 2.77091 15.0732L3.75155 11.0118C3.82159 10.7218 3.72147 10.4173 3.49221 10.2233L0.28245 7.50707C-0.261375 7.04686 0.0280544 6.16686 0.741835 6.11033L4.9547 5.77667C5.25561 5.75284 5.51774 5.56469 5.63367 5.28933L7.25672 1.43421Z" fill="#3C3D41"></path>
                            </svg>