<svg xmlns="http://www.w3.org/2000/svg" width="107" height="42" viewBox="0 0 107 42" fill="none">
                    <path d="M21.2777 25.1606H23.7882V18.3574L26.8191 9.18684H24.3775L22.6707 15.0554H22.6248L20.9103 9.18684H18.2468L21.2777 18.3574V25.1606ZM31.1664 25.3904C32.215 25.4594 33.2483 25.0763 33.9983 24.3408C34.6948 23.5134 35.0469 22.4562 34.978 21.3759V12.9792C35.0469 11.8989 34.6948 10.834 33.9983 9.99893C33.2483 9.26345 32.215 8.88039 31.1664 8.94934C30.1179 8.88039 29.0922 9.26345 28.3422 9.99893C27.6457 10.8264 27.286 11.8913 27.3548 12.9715V21.3759C27.286 22.4562 27.638 23.5134 28.3422 24.3408C29.0922 25.0763 30.1179 25.4594 31.1664 25.3904ZM29.8576 12.8106C29.8576 11.7687 30.2939 11.2401 31.1741 11.2401C32.0543 11.2401 32.4905 11.7687 32.4905 12.8106V21.5292C32.4905 22.5788 32.0543 23.1074 31.1741 23.1074C30.3015 23.1074 29.8576 22.5788 29.8576 21.5292V12.8106ZM40.3127 25.3904C41.346 25.4594 42.3563 25.084 43.0987 24.3485C43.7799 23.5134 44.1243 22.4485 44.0478 21.3683V9.18684H41.6292V21.5521C41.6674 21.9735 41.5526 22.4025 41.3 22.7396C41.0551 22.9925 40.7107 23.1304 40.351 23.1074C39.9912 23.138 39.6315 23.0001 39.3789 22.7396C39.1264 22.3949 39.0039 21.9735 39.0422 21.5521V9.18684H36.5623V21.3759C36.4935 22.4562 36.8379 23.5211 37.5191 24.3562C38.2615 25.084 39.2794 25.4594 40.3127 25.3904ZM48.3339 18.3114H49.237C49.6886 18.2655 50.1402 18.4263 50.4616 18.7481C50.7448 19.2078 50.8673 19.7441 50.8137 20.2804V23.1993C50.7907 23.6207 50.7984 24.0421 50.829 24.4634C50.8596 24.7162 50.9209 24.9537 51.0127 25.1912H53.5691C53.4466 24.9308 53.3701 24.6473 53.3395 24.3562C53.3012 23.9884 53.2859 23.6207 53.2935 23.2529V20.4183C53.3242 19.6445 53.194 18.8784 52.9185 18.1582C52.6736 17.6066 52.1914 17.1929 51.602 17.0396V16.9937C52.6965 16.557 53.24 15.5074 53.24 13.8449V12.8566C53.3241 11.853 53.0027 10.857 52.3521 10.0832C51.5638 9.41668 50.5458 9.0949 49.5202 9.17918H45.8234V25.1529H48.3339V18.3114ZM48.3339 11.4699H49.4743C49.8417 11.4393 50.2014 11.5848 50.4463 11.8606C50.6759 12.236 50.7831 12.6727 50.7448 13.1171V14.3505C50.7907 14.8179 50.6606 15.2929 50.3698 15.6683C50.0636 15.9441 49.658 16.0896 49.237 16.059H48.3262V11.4699H48.3339ZM58.2761 25.3904C59.3171 25.4594 60.3427 25.0763 61.0851 24.3408C61.7816 23.4981 62.1337 22.4255 62.0571 21.33C62.0801 20.4183 61.8734 19.5142 61.4678 18.7021C60.8937 17.7521 60.159 16.9171 59.3018 16.2199C58.6512 15.6913 58.0848 15.0784 57.6026 14.3965C57.2888 13.9138 57.1204 13.3469 57.1128 12.7723C57.1128 11.7534 57.5337 11.2477 58.368 11.2477C58.7201 11.2247 59.0645 11.3626 59.3018 11.6231C59.5467 11.9679 59.6615 12.3969 59.6232 12.8183V13.638H61.9959V12.9792C62.0724 11.9066 61.751 10.8493 61.0928 9.99893C60.3809 9.27111 59.3859 8.88805 58.368 8.957C57.3347 8.88805 56.3244 9.26345 55.5897 9.99893C54.9085 10.8187 54.5641 11.8683 54.6329 12.9332C54.6176 13.8066 54.8319 14.6647 55.2529 15.4308C55.8346 16.3578 56.5694 17.1929 57.4189 17.8824C58.0618 18.4187 58.6206 19.0392 59.0875 19.7364C59.3936 20.2727 59.5543 20.8856 59.539 21.5062C59.5773 21.9429 59.4625 22.3719 59.2099 22.732C58.9573 23.0001 58.6053 23.138 58.2379 23.115C57.3653 23.115 56.9214 22.5941 56.9214 21.5598V20.4719H54.587V21.3836C54.5181 22.4562 54.8473 23.5211 55.5208 24.3638C56.2402 25.084 57.2505 25.4671 58.2761 25.3904ZM65.4554 25.1606H67.9658V11.4699H70.5911V9.18684H62.8378V11.4699H65.4554V25.1606ZM75.3288 25.3904C76.3774 25.4594 77.4106 25.0763 78.1607 24.3408C78.8572 23.5134 79.2093 22.4562 79.1404 21.3759V12.9792C79.2093 11.8989 78.8572 10.834 78.1607 9.99893C76.5381 8.59692 74.1348 8.59692 72.5122 9.99893C71.8157 10.8264 71.456 11.8913 71.5249 12.9715V21.3759C71.456 22.4562 71.8081 23.5134 72.5122 24.3408C73.2546 25.0763 74.2802 25.4594 75.3288 25.3904ZM74.0123 12.8106C74.0123 11.7687 74.4486 11.2401 75.3288 11.2401C76.209 11.2401 76.6452 11.7687 76.6452 12.8106V21.5292C76.6452 22.5788 76.209 23.1074 75.3288 23.1074C74.4563 23.1074 74.0123 22.5788 74.0123 21.5292V12.8106ZM83.327 18.3114H84.1919C84.6435 18.2655 85.095 18.4263 85.4165 18.7481C85.6997 19.2078 85.8221 19.7441 85.7686 20.2804V23.1993C85.7609 23.613 85.7762 24.0267 85.8145 24.4328C85.8451 24.6856 85.9063 24.9231 85.9982 25.1606H88.5469C88.4321 24.8925 88.3555 24.6167 88.3249 24.3255C88.2867 23.9578 88.2714 23.59 88.279 23.2223V20.4183C88.3096 19.6445 88.1795 18.8784 87.904 18.1582C87.659 17.6066 87.1769 17.1929 86.5875 17.0396V16.9937C87.6897 16.557 88.2331 15.5074 88.2254 13.8449V12.8566C88.3096 11.853 87.9882 10.857 87.3376 10.0832C86.5492 9.41668 85.5313 9.0949 84.5057 9.17918H80.7936V25.1529H83.304L83.327 18.3114ZM83.327 11.4699H84.4674C84.8348 11.4393 85.1869 11.5848 85.4318 11.8606C85.6691 12.236 85.7839 12.6727 85.7379 13.1171V14.3505C85.7839 14.8179 85.6538 15.2929 85.3629 15.6683C85.0568 15.9441 84.6511 16.0896 84.2302 16.059H83.3194V11.4699H83.327ZM91.9452 25.1606H94.4556V18.3574L97.4865 9.18684H95.045L93.3382 15.0554H93.2922L91.5778 9.18684H88.9143L91.9452 18.3574V25.1606Z" fill="#656565"></path>
                    <path d="M104.375 0.146484H8.59521V34.0093H107V0.146484H104.375ZM104.375 31.3815H11.1592V2.7743H104.375V31.3815Z" fill="#656565"></path>
                    <path d="M96.9047 33.5885C96.522 33.5809 96.1469 33.4889 95.8102 33.3204V39.2349H2.62525V10.62H9.92697C9.55959 9.75428 9.67439 8.75832 10.2255 7.99219H0V41.855H98.4278V33.3127C97.9379 33.4966 97.4251 33.5885 96.9047 33.5885Z" fill="#656565"></path>
                    <path d="M11.6951 32.3545L2.05135 41.2875L0.199134 39.4335L9.84291 30.5005L11.6951 32.3545ZM10.4399 2.00051L1.90593 9.86099L0.0537109 8.00696L8.58769 0.146484C8.58769 0.154146 10.4399 2.00051 10.4399 2.00051Z" fill="#656565"></path>
                </svg>