<svg width="12" height="7" viewBox="0 0 12 7" fill="none" xmlns="http://www.w3.org/2000/svg">
<path d="M0.469402 5.46804L5.4694 0.468045C5.53908 0.398125 5.62187 0.342648 5.71304 0.304794C5.8042 0.26694 5.90194 0.247453 6.00065 0.247453C6.09936 0.247453 6.1971 0.26694 6.28827 0.304794C6.37943 0.342648 6.46222 0.398125 6.5319 0.468045L11.5319 5.46804C11.6728 5.60894 11.752 5.80004 11.752 5.99929C11.752 6.19855 11.6728 6.38965 11.5319 6.53054C11.391 6.67144 11.1999 6.7506 11.0007 6.7506C10.8014 6.7506 10.6103 6.67144 10.4694 6.53054L6.00003 2.06117L1.53065 6.53117C1.38976 6.67207 1.19866 6.75122 0.999403 6.75122C0.800145 6.75122 0.609049 6.67207 0.468153 6.53117C0.327257 6.39027 0.2481 6.19918 0.2481 5.99992C0.2481 5.80066 0.327257 5.60957 0.468153 5.46867L0.469402 5.46804Z" fill="#333333"/>
</svg>
