<svg xmlns="http://www.w3.org/2000/svg" width="19" height="19" viewBox="0 0 19 19" fill="none">
                            <path d="M14.7064 10.293C14.6136 10.2 14.5034 10.1263 14.382 10.076C14.2607 10.0257 14.1307 9.99976 13.9994 9.99976C13.868 9.99976 13.738 10.0257 13.6167 10.076C13.4953 10.1263 13.3851 10.2 13.2924 10.293L11.6984 11.887C10.9594 11.667 9.58036 11.167 8.70636 10.293C7.83236 9.41896 7.33236 8.03996 7.11236 7.30096L8.70636 5.70696C8.7993 5.61417 8.87304 5.50397 8.92335 5.38265C8.97366 5.26134 8.99956 5.13129 8.99956 4.99996C8.99956 4.86862 8.97366 4.73858 8.92335 4.61726C8.87304 4.49595 8.7993 4.38575 8.70636 4.29296L4.70636 0.292957C4.61357 0.200011 4.50337 0.126273 4.38205 0.0759627C4.26074 0.0256519 4.13069 -0.000244141 3.99936 -0.000244141C3.86802 -0.000244141 3.73798 0.0256519 3.61666 0.0759627C3.49535 0.126273 3.38515 0.200011 3.29236 0.292957L0.580357 3.00496C0.200357 3.38496 -0.0136428 3.90696 -0.00564283 4.43996C0.0173572 5.86396 0.394357 10.81 4.29236 14.708C8.19036 18.606 13.1364 18.982 14.5614 19.006H14.5894C15.1174 19.006 15.6164 18.798 15.9944 18.42L18.7064 15.708C18.7993 15.6152 18.873 15.505 18.9234 15.3837C18.9737 15.2623 18.9996 15.1323 18.9996 15.001C18.9996 14.8696 18.9737 14.7396 18.9234 14.6183C18.873 14.4969 18.7993 14.3867 18.7064 14.294L14.7064 10.293ZM14.5794 17.005C13.3314 16.984 9.06136 16.649 5.70636 13.293C2.34036 9.92696 2.01436 5.64196 1.99436 4.41896L3.99936 2.41396L6.58536 4.99996L5.29236 6.29296C5.17482 6.41041 5.0884 6.55529 5.04091 6.71453C4.99342 6.87376 4.98636 7.04231 5.02036 7.20496C5.04436 7.31996 5.63136 10.047 7.29136 11.707C8.95136 13.367 11.6784 13.954 11.7934 13.978C11.9559 14.0129 12.1246 14.0064 12.284 13.9591C12.4434 13.9117 12.5883 13.825 12.7054 13.707L13.9994 12.414L16.5854 15L14.5794 17.005Z" fill="#3C3D41"></path>
                        </svg>